<svg width="50" height="53" viewBox="0 0 50 53" fill="none" xmlns="http://www.w3.org/2000/svg">
<g clip-path="url(#clip0)">
<path d="M40.8185 23.4456C38.2849 23.4824 35.4692 22.8868 33.023 24.1984C35.502 23.2913 38.2958 23.703 40.8185 23.4456Z" fill="black"/>
<path d="M47.9645 38.2335C46.7735 37.9001 45.6908 37.556 44.4998 37.2118C42.1395 36.5128 39.7142 35.8029 37.3539 35.1146C35.7623 34.6522 34.4305 33.9746 33.651 32.4474C32.8497 30.888 32.1135 29.2962 31.3448 27.7153C31.1932 27.4034 31.0524 27.0915 30.9009 26.7904C30.8575 26.7043 30.8034 26.6183 30.6951 26.6721C30.6085 26.7151 30.5869 26.8011 30.6302 26.8979C30.6843 27.027 30.7493 27.156 30.8142 27.2851C31.4855 28.6832 32.1893 30.0813 32.8281 31.501C33.6618 33.3723 34.9069 34.7597 36.9749 35.3405C40.4396 36.3192 43.861 37.3839 47.3149 38.3841C47.6938 38.4917 48.2352 38.8788 48.5492 38.5777C48.7401 38.3946 48.1378 38.2658 47.9645 38.2335Z" fill="black"/>
<path d="M22.5747 34.8135C20.5536 34.8135 18.9151 33.1475 18.9151 31.0923C18.9151 29.0372 20.5536 27.3711 22.5747 27.3711C24.5959 27.3711 26.2343 29.0372 26.2343 31.0923C26.2343 33.1475 24.5959 34.8135 22.5747 34.8135Z" fill="#7f7f7f"/>
<path d="M29.9697 42.0085C29.6232 42.3527 29.2659 42.4602 28.8112 42.3419C27.9558 42.1268 27.0788 42.03 26.2127 41.9763C23.9606 41.8579 21.7194 41.9978 19.5539 42.6753C19.0667 42.8366 18.7094 42.7506 18.298 42.5032C16.6847 41.5138 15.3638 40.1587 13.913 38.9756C12.2456 37.6205 10.6107 36.2224 8.78087 35.0931C7.96883 34.5984 7.14596 34.0929 6.13903 34.1144C6.25813 34.308 6.3664 34.5124 6.3231 34.7597C6.27979 34.9641 6.34475 35.0824 6.57212 35.1469C7.50326 35.405 8.30447 35.9213 9.08403 36.4698C11.531 38.169 13.7289 40.1587 16.0026 42.0623C18.2547 43.9551 20.8207 45.1274 23.809 45.2027C26.8731 45.278 29.4825 44.267 31.4314 41.8149C32.2326 40.8147 32.6332 39.6317 33.0013 38.4271C32.6548 38.3519 32.1135 38.126 32.0269 38.1153C31.7562 39.6102 31.0308 40.9438 29.9697 42.0085Z" fill="#7f7f7f"/>
<path d="M47.0117 21.9614C47.6722 21.2624 47.434 20.488 47.3798 19.7029C47.3473 19.305 47.1633 19.2297 46.8276 19.2727C46.3837 19.3265 45.9831 19.262 45.7449 18.8103C45.7016 18.7242 45.5825 18.6812 45.4959 18.6167C45.4309 18.6167 44.9221 18.6274 44.8246 18.6382C44.6622 18.6597 44.6297 18.8748 44.6622 19.1114C44.8463 20.4127 44.987 21.7248 45.0953 23.0369C45.7124 23.0584 46.3188 23.1552 46.9359 23.1767C46.9684 22.7896 46.7627 22.2518 47.0117 21.9614Z" fill="#3C3C3C"/>
<path d="M43.8285 25.9192C44.4132 25.9515 44.987 25.973 45.5609 25.9085C46.1564 25.8439 46.7519 25.6826 46.9251 24.9835C46.9901 24.7039 47.1958 24.7577 47.3907 24.7469C47.8779 24.7254 48.2244 24.435 48.2352 24.0371C48.246 23.5316 47.8779 23.2628 47.3798 23.2305C47.6072 23.3811 47.6722 23.7145 47.6722 23.8328C47.683 24.3383 47.3365 24.5534 46.6544 24.5318C46.3837 24.5211 46.1347 24.5103 45.864 24.5103C45.6691 25.0051 45.2469 25.1449 44.7163 25.1664C44.0342 25.1879 43.2547 25.1986 42.7133 25.2202C43.0489 25.489 43.3629 25.8977 43.8285 25.9192Z" fill="#3C3C3C"/>
<path d="M42.5076 10.0343C41.4249 8.3135 40.1148 6.7648 38.5123 5.48497L38.3824 5.63554C38.4907 5.73233 38.7505 5.93667 38.9238 6.098C40.7211 7.75425 42.2152 9.63635 43.2871 11.8303C44.2399 13.777 44.8896 15.8312 45.2036 17.9821C45.236 18.1865 45.2793 18.4016 45.3118 18.6167C45.3768 18.6167 45.4418 18.6167 45.5067 18.6167C45.1386 15.5408 44.1641 12.6692 42.5076 10.0343Z" fill="#696969"/>
<path d="M19.9221 0.978689C17.3235 1.26907 14.8549 2.0004 12.5163 3.14042C10.091 4.32345 7.92553 5.85064 6.11739 7.88331C4.93723 9.20616 3.98443 10.6581 3.16156 12.2175C1.85147 14.7127 1.59162 17.3799 2.02471 20.0901C2.34952 22.1228 3.35645 23.3596 5.37031 23.9833C6.70205 24.392 8.06628 24.3813 9.43051 24.1984C11.4227 23.9296 13.35 23.3596 15.288 22.8111C18.3629 21.9399 21.4379 21.0795 24.6969 21.4129C25.5305 21.499 26.3751 21.542 27.2088 21.6603C29.2118 21.9507 31.1932 22.4131 33.207 22.6175C34.8419 22.7788 36.4768 22.8218 38.0793 22.3809C40.4179 21.7463 42.0204 20.3697 42.5617 17.9391C42.919 16.3151 42.6592 14.7234 42.1286 13.1962C40.5695 8.67917 37.6462 5.30215 33.3586 3.11891C30.1538 1.48417 26.7107 0.795856 23.1161 0.763592C22.0442 0.752837 20.994 0.860385 19.9221 0.978689Z" fill="#7f7f7f"/>
<path d="M25.0108 25.1879C23.8956 24.6717 22.7046 24.5426 21.492 24.7577C19.6622 25.0911 18.1789 25.9622 17.0853 27.4894C16.0892 28.8768 15.7644 30.4255 15.8619 32.1033C15.981 34.1359 16.8796 35.7707 18.4712 37.0075C19.9112 38.1367 21.5678 38.5884 23.4192 38.3088C24.9675 38.0722 26.3967 37.3194 27.4361 36.1471C27.1979 36.1256 27.0897 35.889 26.8731 36.1363C26.6457 36.3837 26.4833 36.6848 26.191 36.8892C23.9606 38.4486 21.6327 38.4701 19.2832 37.2333C18.4387 36.7816 17.67 36.1363 17.4426 35.1039C17.3235 34.5661 17.6267 34.1467 18.1897 34.1037C18.7635 34.0606 19.2832 34.179 19.803 34.4371C21.0697 35.0716 22.4015 35.2329 23.7874 34.9641C23.9173 34.9425 24.0905 34.921 24.1122 34.8135C24.1447 34.6629 23.9931 34.5984 23.8632 34.5339C21.7843 35.1684 20.0411 34.351 19.4998 32.4904C19.0126 30.8234 19.9978 29.0166 21.6652 28.5434C23.3218 28.0702 25.0758 29.1134 25.563 30.8342C26.2451 30.1997 26.6241 29.3285 27.133 28.5649C27.4145 27.8013 27.2845 27.1238 26.6999 26.543C26.5916 26.4355 26.5699 26.3064 26.5808 26.1558C26.1152 25.7471 25.563 25.446 25.0108 25.1879Z" fill="#7f7f7f"/>
<path d="M38.0143 5.30214C36.0979 3.75344 33.9649 2.58116 31.6479 1.74228C29.6665 1.0217 27.6094 0.559243 25.5197 0.365655C24.7618 0.301126 24.0039 0.150558 23.2352 0.279616C24.0689 0.387165 24.9134 0.440939 25.7363 0.569998C28.1182 0.957173 30.4786 1.41963 32.6873 2.41984C34.9935 3.46306 37.1589 4.72138 38.9996 6.48518C40.8835 8.30275 42.3344 10.5398 43.4171 12.9058C44.2724 14.7664 44.803 16.6163 45.0412 18.6597C45.1061 18.6489 45.236 18.6167 45.3118 18.6167C45.2793 18.4123 45.236 18.1972 45.2036 17.9821C44.8896 15.8312 44.2508 13.7877 43.2871 11.8303C42.2153 9.63635 40.7211 7.75425 38.9238 6.098C38.7505 5.92592 38.1551 5.4312 38.0143 5.30214Z" fill="#7f7f7f"/>
<path d="M26.57 33.0497C27.3062 33.4584 28.0425 33.8779 28.7787 34.2973C29.9589 34.6522 30.7276 34.3511 31.2473 33.3401C31.7129 32.4367 31.4855 31.5548 30.576 30.8557C30.013 30.4255 29.4175 30.0276 28.8437 29.6082C28.6704 29.5221 28.508 29.4146 28.3348 29.3285C27.9125 29.1134 27.6094 28.7048 27.133 28.5649C26.6241 29.3285 25.2166 31.3182 25.0325 31.544C24.8376 31.8022 24.8701 31.985 25.065 32.1893C25.2923 32.1463 26.1585 32.9852 26.57 33.0497Z" fill="#7f7f7f"/>
<path d="M28.3023 34.9856C28.4755 35.1039 28.6488 35.2437 28.8328 35.3513C29.9264 35.975 31.1607 36.2547 32.33 36.6956C32.4599 35.2652 32.2434 33.8348 32.33 32.4044C32.3084 31.9742 32.0377 31.6408 31.8644 31.2752C31.3447 30.1889 30.8142 29.1027 30.2729 28.0164C30.2079 27.8874 30.1104 27.5432 29.948 27.7691C29.5366 28.3498 28.9628 28.8553 28.8545 29.6082C29.4283 30.0276 30.0238 30.4255 30.5868 30.8557C31.4963 31.5655 31.7237 32.4367 31.2581 33.3401C30.7276 34.351 29.9697 34.6414 28.7895 34.2973C28.4864 34.4263 28.4647 34.749 28.3023 34.9856Z" fill="#696969"/>
<path d="M34.7337 26.0698C35.0152 25.8224 35.2967 25.5751 35.6865 25.4998C35.6865 25.2417 35.6756 24.9943 35.6865 24.7469C35.6865 24.4888 35.5782 24.4135 35.3183 24.4458C33.8675 24.6286 32.5574 25.1449 31.4097 26.059C31.1823 26.2419 31.0957 26.4032 31.2365 26.6936C31.7454 27.726 32.2434 28.7693 32.7523 29.8125C33.0879 28.4036 33.6293 27.1023 34.7337 26.0698Z" fill="#696969"/>
<path d="M25.2707 33.738C25.249 33.8456 25.3681 33.9316 25.4439 33.9854C26.6133 34.7597 27.7176 35.6094 29.0061 36.1471C30.6085 36.8247 32.2759 37.3409 33.9324 37.9002C37.5596 39.1155 41.2191 40.2232 44.9004 41.2879C45.7666 41.5353 46.6111 41.8149 47.4773 42.0515C47.5747 42.073 47.7263 42.1161 47.7804 41.9762C47.8454 41.8149 47.6938 41.7719 47.5747 41.7396C47.4989 41.7181 47.434 41.6859 47.369 41.6644C42.0637 40.2555 36.845 38.5777 31.6587 36.8032C30.4136 36.373 29.1143 36.0396 27.9991 35.2545C27.2412 34.706 26.4292 34.2435 25.6388 33.738C25.563 33.695 25.4764 33.609 25.3898 33.5552C25.3465 33.609 25.2707 33.695 25.2707 33.738Z" fill="black"/>
<path d="M35.6756 25.489C35.2859 25.5536 34.9935 25.8224 34.7228 26.0805C33.6185 27.0915 33.0771 28.4036 32.7415 29.8125C32.958 30.2104 33.207 30.7159 33.3803 31.0708C33.521 30.5223 33.6618 29.8985 33.8458 29.3608C34.2031 28.3176 34.712 27.3281 35.6756 26.6721C35.6865 26.2956 35.6756 25.8655 35.6756 25.489Z" fill="#7f7f7f"/>
<path d="M32.2867 32.1571C32.2109 33.5875 32.46 35.2652 32.33 36.6956C32.6224 36.7709 32.9147 36.9215 33.207 36.9968C33.337 36.3084 33.3153 35.5341 33.2287 34.8458C33.1854 34.5554 33.0879 33.9316 33.0446 33.652C32.8173 33.3724 32.5791 32.6625 32.2867 32.1571Z" fill="#7f7f7f"/>
<path d="M26.5699 33.0497C26.2884 33.5229 26.3426 33.8563 26.8731 34.1252C27.3603 34.3726 27.8259 34.6845 28.3023 34.9748C28.4647 34.749 28.4864 34.4263 28.7895 34.2973C28.0533 33.8778 27.317 33.4692 26.5699 33.0497Z" fill="black"/>
<path d="M37.5855 24.3082C37.1322 24.283 36.9774 24.4721 37.0437 24.9513C38.061 24.6865 39.4433 24.4469 40.4937 24.3965C40.1952 24.3334 38.2822 24.3586 37.5855 24.3082Z" fill="#696969"/>
<path d="M44.7907 25.2104C45.3271 25.1886 45.7103 24.9814 45.9073 24.4798C45.2724 24.3381 42.5903 24.2399 40.357 24.3599C38.7806 24.4471 37.445 24.7415 37.029 24.8397C37.029 25.1995 37.029 25.5594 37.029 25.9192C38.8901 25.4176 44.101 25.2322 44.7907 25.2104Z" fill="#7f7f7f"/>
<path d="M26.6891 26.5645C27.2737 27.1453 27.3604 27.7906 27.068 28.5542C27.5444 28.694 27.8909 29.1995 28.3131 29.4146C28.4864 29.5006 28.7354 29.5221 28.9086 29.6189C29.0277 28.8661 29.6016 28.3606 30.0022 27.7798C30.1646 27.5432 30.1429 27.9949 30.2079 28.124C30.7493 29.1995 31.3123 30.2535 31.832 31.3504C32.0052 31.7161 32.46 32.5873 32.5899 32.9099C33.0601 34.0309 34.2793 34.981 35.3616 35.4588C35.5024 35.5233 35.6323 35.5986 35.6323 35.803C35.6323 36.373 35.654 36.943 35.6648 37.513C35.6648 37.6528 35.6648 37.8249 35.4374 37.7388C34.712 37.4485 29.9697 35.975 28.8762 35.3405C28.6921 35.233 28.5297 35.0931 28.3565 34.9748C27.8801 34.6845 27.4253 34.3618 26.9273 34.1145C26.3967 33.8563 26.6241 33.0497 26.6241 33.0497C26.6241 33.0497 25.9528 32.6303 25.6063 32.4367C25.4439 32.3507 25.3357 32.1463 25.1083 32.1893C24.7835 32.6841 24.4695 33.1788 24.1338 33.652C23.939 33.9316 23.8199 34.2112 23.874 34.5446C24.0039 34.6092 24.123 34.6307 24.0905 34.792C24.0689 34.8996 23.8957 34.9318 23.7657 34.9533C22.3582 35.0824 21.492 34.9856 20.0845 34.4694C19.5648 34.2005 18.7636 33.9316 18.1897 33.9854C17.6267 34.0284 17.2586 34.5769 17.3777 35.1147C17.6051 36.1579 18.4712 36.8032 19.3157 37.2549C21.6652 38.5024 23.9931 38.4809 26.2235 36.9107C26.505 36.7064 26.7107 36.459 26.9381 36.2117C27.1546 35.9643 27.6743 36.2654 27.8259 36.3622C28.8328 37.0505 30.0238 37.3409 31.1499 37.7711C31.453 37.8894 32.6765 38.3949 33.0121 38.4379C33.7809 38.696 34.5496 38.9649 35.3183 39.2015C35.5998 39.2875 35.7081 39.4058 35.7081 39.7177C35.6973 40.8685 35.7623 42.0085 35.9138 43.1485C36.2495 45.6544 37.1481 47.8807 39.1079 49.5907C41.0568 51.3007 43.4279 52.1934 45.8532 52.9677C46.1347 53.0538 46.3946 52.9892 46.5353 52.6989C46.6869 52.387 46.8276 52.0428 46.5137 51.7632C46.3404 51.6126 46.3512 51.5051 46.4162 51.3222C47.3149 48.7733 48.0295 46.1707 48.6574 43.5465C48.7007 43.3421 48.7765 43.2238 48.9498 43.084C49.3071 42.8044 49.4045 42.3849 49.1663 41.987C49.058 41.8042 49.0689 41.6644 49.1014 41.4923C49.1988 41.0191 49.2638 40.5459 49.372 40.0726C49.4045 39.9221 49.372 39.7285 49.5886 39.6209C49.9784 39.4274 50.0433 39.0402 49.9784 38.653C49.9242 38.3088 49.5886 38.2766 49.3179 38.2013C45.3768 37.0613 41.4465 35.8998 37.5054 34.7705C37.1048 34.6522 36.9641 34.4801 36.9857 34.0607C37.029 33.1465 37.0182 32.2323 37.029 31.3182C37.0399 29.5221 37.0615 27.7368 37.0723 25.9407C37.0723 25.5858 37.0723 25.2309 37.0723 24.876C37.0182 24.4673 37.159 24.306 37.6029 24.3275C38.285 24.3598 46.3729 24.5319 46.6436 24.5426C47.6289 24.5749 47.7588 24.2522 47.748 23.822C47.7371 23.2843 47.2932 23.1445 46.9359 23.123C46.3188 23.1015 45.7666 23.0369 45.1494 23.0154C44.5323 23.0154 43.861 22.9079 43.2547 22.9079C40.4288 22.8971 37.6137 22.8218 34.7986 23.1552C33.4236 23.3166 32.3027 23.6789 31.0199 24.5964C29.3959 25.7579 29.201 26.3925 28.4431 27.4249C28.194 27.7691 28.0966 27.7691 27.8476 27.4249C27.5011 26.941 27.1871 26.3925 26.5808 26.1558C26.57 26.3064 26.5158 26.4462 26.6891 26.5645ZM35.6323 34.0284C34.3222 33.2971 33.9108 32.0388 33.5643 31.415C33.337 31.0063 32.958 30.1889 32.7523 29.791C32.2542 28.7585 31.8103 27.7583 31.2906 26.7259C31.1499 26.4355 31.1715 26.2634 31.3989 26.0806C32.5466 25.1664 33.8567 24.6502 35.3075 24.4673C35.5674 24.4351 35.6865 24.5104 35.6756 24.7685C35.6648 25.0266 35.6756 25.2739 35.6756 25.5213C35.6648 25.9085 35.6432 26.2849 35.6323 26.6721C35.6323 29.0812 35.6323 31.4903 35.6323 34.0284ZM46.9901 42.7506C47.2391 42.8151 47.3257 42.9334 47.2607 43.2023C46.6544 45.7942 45.9182 48.3539 45.052 50.8705C44.9978 51.0534 44.9329 51.1824 44.6839 51.0856C43.049 50.4511 41.4574 49.752 40.1148 48.6013C38.3716 47.1171 37.6137 45.1489 37.3105 42.9657C37.1698 41.9332 37.1481 40.9008 37.1048 39.8038C40.4396 40.8578 43.7094 41.8364 46.9901 42.7506ZM38.0576 36.373C41.23 37.3086 44.4024 38.2336 47.5855 39.1477C47.9645 39.2553 48.0728 39.3843 47.9537 39.7715C47.8346 40.1694 47.7696 40.5781 47.7263 40.9868C47.683 41.3632 47.5747 41.4385 47.1849 41.331C44.2291 40.4921 41.2841 39.6209 38.35 38.696C38.2958 38.6745 38.2525 38.653 38.1984 38.6422C37.0832 38.3088 37.0832 38.3088 37.029 37.1903C36.9749 36.0611 36.9749 36.0611 38.0576 36.373ZM25.628 33.738C26.4184 34.2435 27.2304 34.7167 27.9883 35.2545C29.0927 36.0503 30.392 36.373 31.6479 36.8032C36.8341 38.5885 42.0529 40.2555 47.3582 41.6644C47.434 41.6859 47.4989 41.7181 47.5639 41.7397C47.6938 41.7719 47.8454 41.8042 47.7696 41.9763C47.7155 42.1161 47.5855 42.03 47.4881 41.9978C46.6219 41.7612 45.7558 41.5353 44.8896 41.2879C41.2192 40.2232 37.5487 39.1155 33.9216 37.9002C32.2651 37.3409 30.5977 36.8247 28.9953 36.1471C27.7068 35.5986 26.6024 34.6952 25.4331 33.9316C25.3465 33.8778 25.2707 33.8241 25.3032 33.7165C25.314 33.6735 25.3573 33.6412 25.4006 33.5875C25.4872 33.652 25.563 33.695 25.628 33.738ZM47.3149 38.3734C43.861 37.3732 40.4288 36.3084 36.9749 35.3298C34.9069 34.7382 33.6726 33.3616 32.8281 31.4903C32.1893 30.0706 31.4855 28.6832 30.8142 27.2744C30.7601 27.1453 30.6951 27.0162 30.6302 26.8872C30.5869 26.8011 30.6085 26.7043 30.6951 26.6613C30.8034 26.6076 30.8575 26.7043 30.9008 26.7796C31.0524 27.0915 31.1932 27.4034 31.3448 27.7045C32.1027 29.2855 32.8497 30.8772 33.651 32.4367C34.4305 33.9639 35.8056 34.7167 37.3972 35.1792C39.7575 35.8675 42.1395 36.5666 44.4998 37.2656C45.6908 37.6098 46.8601 37.9539 48.0511 38.2981C48.2244 38.3411 48.4084 38.3411 48.5492 38.5777C48.0728 38.7498 47.6938 38.4917 47.3149 38.3734ZM40.6886 23.4564C38.1875 23.6822 35.6323 23.3273 33.1746 24.1232C35.6107 22.9724 38.1767 23.4886 40.6886 23.4564Z" fill="#3C3C3C"/>
<path d="M45.0845 18.6167C44.8463 16.5733 44.2724 14.6266 43.4279 12.766C42.356 10.4 40.8727 8.30277 38.9888 6.48519C37.1481 4.72139 34.9827 3.46307 32.6765 2.41985C30.4678 1.41965 28.1074 0.946434 25.7255 0.570014C24.9026 0.430201 24.0581 0.387181 23.2244 0.279632C23.9931 0.150574 24.7618 0.290387 25.5089 0.365671C27.6094 0.570014 29.6557 1.03247 31.6371 1.7423C33.9649 2.58118 36.0871 3.75346 38.0035 5.30216C38.1551 5.42046 38.3175 5.58178 38.3824 5.6248L38.5124 5.47424C37.1698 4.23743 35.6323 3.26949 33.9866 2.50589C27.8368 -0.354905 21.4812 -0.7851 15.0607 1.32285C7.76313 3.72119 2.92338 8.6039 0.887863 16.0463C-0.368092 20.6279 -0.0541039 25.274 0.389812 29.9201C0.411469 30.1782 0.552223 30.1997 0.747112 30.1997C1.25599 30.1997 1.76487 30.232 2.26292 30.1889C2.7718 30.1459 3.09661 30.318 3.39978 30.7159C4.28761 31.8667 5.21874 32.9852 6.12823 34.1145C7.14598 34.093 7.96885 34.5984 8.77007 35.0932C10.5999 36.2224 12.2348 37.6205 13.9022 38.9757C15.353 40.1587 16.6739 41.5138 18.2872 42.5033C18.6986 42.7506 19.0559 42.8259 19.5431 42.6753C21.7086 41.987 23.9498 41.8472 26.2019 41.9763C27.068 42.0193 27.945 42.1161 28.8004 42.3419C29.2551 42.4602 29.6124 42.3634 29.9589 42.0085C31.0308 40.9331 31.7562 39.5994 32.0269 38.1045C31.9511 38.0615 31.4314 37.8679 31.1282 37.7496C30.0022 37.3302 28.8112 37.0398 27.8043 36.3407C27.6527 36.2439 27.5228 36.1686 27.4362 36.1471C26.3859 37.3302 24.9676 38.0723 23.4193 38.3089C21.5678 38.5885 19.9221 38.1368 18.4712 37.0075C16.8905 35.7707 15.981 34.136 15.8619 32.1033C15.7644 30.4255 16.0892 28.8876 17.0854 27.4895C18.1789 25.9623 19.6622 25.0804 21.492 24.7577C22.7047 24.5426 23.8848 24.6717 25.0109 25.1879C25.563 25.446 26.1152 25.7364 26.5808 26.1451C27.1871 26.3925 27.5011 26.9302 27.8476 27.4142C28.0966 27.7583 28.1941 27.7583 28.4431 27.4142C29.201 26.3817 29.9156 25.317 31.02 24.5856C32.1676 23.822 33.4128 23.3058 34.7986 23.1445C37.6137 22.8218 40.4396 22.9401 43.2655 22.9509C43.8718 22.9509 44.489 23.0369 45.0953 23.0369L45.0845 18.6167ZM33.3803 3.11892C37.657 5.30216 40.5912 8.67919 42.1503 13.1962C42.6808 14.7342 42.9407 16.3151 42.5834 17.9391C42.042 20.3697 40.4396 21.7464 38.1009 22.3809C36.4985 22.8218 34.8636 22.7788 33.2287 22.6175C31.204 22.4132 29.2335 21.9507 27.2304 21.6603C26.3967 21.5313 25.5522 21.499 24.7185 21.413C21.4595 21.0796 18.3846 21.9399 15.3097 22.8111C13.3825 23.3596 11.4552 23.9296 9.45218 24.1985C8.08795 24.3813 6.7129 24.4028 5.39198 23.9834C3.37812 23.3488 2.37119 22.1228 2.04638 20.0901C1.61329 17.3799 1.87314 14.7019 3.18323 12.2175C4.0061 10.6688 4.95889 9.20618 6.13905 7.88333C7.9472 5.85066 10.1126 4.32346 12.5379 3.14043C14.8766 2.00041 17.3452 1.26908 19.9437 0.978699C21.0048 0.860396 22.055 0.742092 23.1161 0.763602C26.6999 0.795866 30.143 1.49493 33.3803 3.11892Z" fill="#696969"/>
<path d="M18.1356 40.5351C17.4898 40.5351 16.9662 40.0295 16.9662 39.4058C16.9662 38.7822 17.4898 38.2766 18.1356 38.2766C18.7814 38.2766 19.3049 38.7822 19.3049 39.4058C19.3049 40.0295 18.7814 40.5351 18.1356 40.5351Z" fill="#7f7f7f"/>
<path d="M18.1356 40.3093C17.6333 40.3093 17.2261 39.9144 17.2261 39.4274C17.2261 38.9403 17.6333 38.5455 18.1356 38.5455C18.6379 38.5455 19.045 38.9403 19.045 39.4274C19.045 39.9144 18.6379 40.3093 18.1356 40.3093Z" fill="#7f7f7f"/>
<path d="M27.9775 41.7181C27.3317 41.7181 26.8081 41.2126 26.8081 40.5889C26.8081 39.9652 27.3317 39.4596 27.9775 39.4596C28.6233 39.4596 29.1468 39.9652 29.1468 40.5889C29.1468 41.2126 28.6233 41.7181 27.9775 41.7181Z" fill="#7f7f7f"/>
<path d="M27.9991 41.4708C27.4969 41.4708 27.0897 41.0759 27.0897 40.5889C27.0897 40.1018 27.4969 39.707 27.9991 39.707C28.5014 39.707 28.9086 40.1018 28.9086 40.5889C28.9086 41.0759 28.5014 41.4708 27.9991 41.4708Z" fill="#7f7f7f"/>
</g>
<defs>
<clipPath id="clip0">
<rect width="50" height="53" fill="white" transform="matrix(-1 0 0 1 50 0)"/>
</clipPath>
</defs>
</svg>
