<svg width="28" height="56" viewBox="0 0 28 56" fill="none" xmlns="http://www.w3.org/2000/svg">
<path d="M4 1L7 0C7 0 8.52346 5.5 14 5.5C19.4765 5.5 21 0 21 0L24 1C22 7.5 22.5 11 27.5 16C27.5 16 26.5883 30.939 27 40.5C27.2191 45.5871 28 53.5 28 53.5C28 53.5 26.4301 55.0582 24 55.5C20.9262 56.0589 17.1242 55.5 14 55.5C10.8758 55.5 7.0738 56.0589 4 55.5C1.56995 55.0582 0 53.5 0 53.5C0 53.5 0.780946 45.5871 1 40.5C1.4117 30.939 0.5 16 0.5 16C5.52465 10.9754 5.74738 7.53957 4 1Z" fill="#1D42BA"/>
</svg>
