<svg viewBox="0 0 80 80" fill="none" xmlns="http://www.w3.org/2000/svg">
<path d="M74.2 44.9834C74.0725 45.8741 73.4643 46.295 72.6601 46.5005C71.8362 46.7159 67.5106 47.4795 66.1669 47.6459C65.6863 47.7046 63.3224 47.6069 63.1753 47.3818C62.9105 46.9511 62.3612 43.0349 62.1454 41.5568C61.9885 40.4898 61.3608 37.6906 61.0469 37.4459C60.89 37.857 58.4771 44.9244 58.3398 45.913C58.1534 47.1856 57.8532 50.4451 57.5688 51.6099C57.3726 52.4224 57.1666 56.7697 57.2255 57.2787C57.3333 58.1792 57.5001 64.5014 57.6668 64.9615C57.7257 65.1279 59.1517 72.9111 59.446 73.5474C59.6912 74.0858 59.2694 74.8478 58.7104 75.024C57.7099 75.3372 52.2488 75.6511 50.7579 75.749C49.7476 75.8175 30.0523 75.8175 29.0421 75.749C27.5414 75.6511 22.0802 75.3372 21.0896 75.024C20.5305 74.8478 20.0989 74.0858 20.354 73.5474C20.354 73.5474 22.0743 65.1279 22.1331 64.9615C22.2999 64.5014 22.4568 58.1792 22.5745 57.2787C22.6432 56.7697 22.4274 52.4224 22.2312 51.6099C21.9468 50.4451 21.6465 47.1758 21.4602 45.913C21.313 44.9342 18.91 37.857 18.7531 37.4459C18.4392 37.6906 17.8115 40.48 17.6545 41.5568C17.4387 43.0349 16.8797 46.9511 16.6246 47.3818C16.4873 47.6167 14.1137 47.7046 13.6331 47.6459C12.2893 47.4795 7.9638 46.7159 7.13989 46.5005C6.3356 46.295 5.72748 45.8741 5.59998 44.9834C5.59998 44.954 6.95353 33.3445 7.10066 32.6005C7.46357 30.6232 7.82648 28.6365 8.11093 26.6396C8.26786 25.5237 9.0231 17.7813 9.11138 17.3506C9.38601 15.9606 10.0432 14.7561 11.0142 13.7381C11.3085 13.4248 14.1627 11.8484 15.1926 11.2709C17.527 9.96898 19.9791 8.96136 22.5391 8.18806C23.9123 7.76714 25.2266 7.17032 26.5998 6.73962C27.7768 6.37744 28.6694 5.64312 29.5129 4.82087C29.8464 4.48806 30.2485 4.30116 30.6997 4.21306C30.9155 4.1739 31.1018 4.22289 31.2882 4.35993C32.3083 5.12345 33.3578 5.83907 34.5053 6.40681C35.2116 6.74941 38.5366 7.44431 39.9098 7.44431C41.283 7.44431 44.608 6.7592 45.3142 6.40681C46.4618 5.83907 47.5113 5.12345 48.5314 4.35993C48.7177 4.22289 48.9041 4.1739 49.1199 4.21306C49.5711 4.30116 49.9732 4.48806 50.3067 4.82087C51.1502 5.65291 52.0428 6.37744 53.2198 6.73962C54.593 7.16053 55.9073 7.76714 57.2805 8.18806C59.8405 8.96136 62.2926 9.96898 64.627 11.2709C65.6569 11.8484 68.5111 13.4248 68.8053 13.7381C69.7764 14.7561 70.4335 15.9606 70.7082 17.3506C70.7965 17.7813 71.5419 25.5139 71.7086 26.6396C71.9931 28.6365 72.3462 30.6135 72.7189 32.6005C72.8464 33.3543 74.2 44.954 74.2 44.9834Z" fill="#CD0B36"/>
<path d="M73.4 46.1958C74.1 45.7969 74.2 44.9992 74.2 44.9992L74.1 44.002C74.1 44.002 73.2289 44.9574 72.5 45.2983C71.7788 45.6356 70 45.8967 70 45.8967C70 45.8967 67.483 46.3664 66 46.495C64.7495 46.6035 63 46.495 63 46.495C63 46.495 63.0295 47.4922 63.4 47.4922C63.6 47.4922 65 47.6917 65.5 47.6917C66 47.6917 68.9488 47.3225 70.8 46.8939C71.8242 46.6567 72.7 46.5947 73.4 46.1958Z" fill="#403D52"/>
<path d="M6.39997 46.1958C5.69997 45.7969 5.59998 44.9992 5.59998 44.9992L5.69997 44.002C5.69997 44.002 6.57107 44.9574 7.29997 45.2983C8.02112 45.6356 9.79997 45.8967 9.79997 45.8967C9.79997 45.8967 12.317 46.3664 13.8 46.495C15.0504 46.6035 16.8 46.495 16.8 46.495C16.8 46.495 16.7705 47.4922 16.4 47.4922C16.2 47.4922 14.8 47.6917 14.3 47.6917C13.8 47.6917 10.8511 47.3225 8.99997 46.8939C7.9757 46.6567 7.09998 46.5947 6.39997 46.1958Z" fill="#403D52"/>
<path d="M36.7999 7.29059L30.6999 4.89728L30.3999 5.19644L33.5999 8.58697L37.0999 10.7808L41.4999 10.8806L45.3999 9.08558L49.2999 5.19644L48.5999 4.89728L42.8999 7.29059H36.7999Z" fill="black" fill-opacity="0.05"/>
<path d="M48.9157 4.08807C49.4112 4.08807 49.7085 4.11805 49.9067 4.488C50.0539 4.76279 50.0058 5.0879 49.9067 5.28786C49.8076 5.48783 47.5956 8.40165 45.5465 9.68713C43.5334 10.9501 42.1753 11.7184 39.7991 11.6868C37.396 11.6548 36.0592 10.8082 34.0516 9.48716C32.1228 8.21795 29.9887 5.38785 29.8896 5.28786C29.7905 5.18788 29.7512 4.76739 29.8896 4.488C30.1085 4.04624 30.6824 4.08807 31.0787 4.08807C31.4751 4.08806 33.2116 5.60886 34.8443 6.2877C36.6406 7.03454 37.8082 7.2875 39.7991 7.2875C41.7899 7.2875 42.9417 6.98096 44.7538 6.2877C46.5416 5.60371 48.4203 4.08806 48.9157 4.08807ZM31.0787 5.28786C31.0787 5.28786 33.0046 7.78732 34.6516 8.88736C36.4449 10.0851 37.6427 10.8551 39.7991 10.887C41.9284 10.9184 43.1301 10.1988 44.9465 9.08733C46.7768 7.96737 48.9157 5.28786 48.9157 5.28786C48.9157 5.28786 46.4478 6.67285 44.7538 7.28753C42.8813 7.96697 41.7889 8.28733 39.7991 8.28733C37.8092 8.28733 36.6987 8.0159 34.8443 7.28753C33.2958 6.67925 31.0787 5.28786 31.0787 5.28786Z" fill="#403D52"/>
<path d="M21.7156 39.4152C20.6191 36.1893 21.0747 29.2 18.4156 31.3378C17.2052 32.3109 17.0482 33.4132 16.7156 34.9278C16.1922 37.3111 17.7 41.11 17.7 41.11C17.7 41.11 17.9799 39.7881 18.2 39.0159C18.379 38.3879 18.7 37.5201 18.7 37.5201C18.7 37.5201 20.5607 42.2442 21.3 45.3981C21.7603 47.3619 21.7095 48.4879 22 50.4838C22.2992 52.5395 22.6 55.7691 22.6 55.7691C22.6 55.7691 23.8 57.963 24.4 57.8632C25 57.7635 25.1312 56.867 25.2156 55.5701C25.3 54.2733 23.7933 45.5281 21.7156 39.4152Z" fill="black" fill-opacity="0.1"/>
<path d="M23.7 62.1513C22.964 63.2126 22.2059 64.2751 23.2 65.5418C23.3702 65.7587 23.4683 65.8907 23.7 66.0404C24.7895 66.7443 25.356 64.7711 26 63.6471C26.719 62.3924 27.6901 62.0295 27.4001 60.6554C27.2438 59.9155 28.0523 59.1671 27.5001 58.5613C26.7199 57.7055 25.9884 60.0597 25.4001 60.6554C24.6767 61.388 24.2865 61.3057 23.7 62.1513Z" fill="black" fill-opacity="0.1"/>
<path d="M22 69.4309C22.0108 68.7829 22.6103 68.4281 22.9 68.0348C23.2271 67.591 22.8066 67.5049 23.9 67.0376L26.7001 65.841C27.7935 65.3736 27.7824 64.8695 28.6001 64.9435C28.969 64.9769 29.2276 64.9923 29.5001 65.2426C30.1299 65.8215 29.1719 66.6012 28.6001 67.2371C27.8534 68.0673 26.9189 67.7981 26 68.4337C25.2056 68.9833 25.0104 69.603 24.2 70.129C23.6877 70.4615 23.1639 71.0105 22.8 70.827C22.4027 70.6267 21.9897 70.0588 22 69.4309Z" fill="black" fill-opacity="0.1"/>
<path d="M24.2 72.3229C22.7343 73.8167 19.4 72.7217 20.4 74.3173C20.6651 74.7402 20.7001 74.9755 21.4 75.1151C21.9001 75.2148 27.5001 75.7134 27.5001 75.7134C27.5001 75.7134 27.8233 75.176 28.0001 74.8159C28.5212 73.7537 28.7395 73.0956 28.9001 71.924C29.0322 70.9593 29.6535 70.0501 28.9001 69.4309C28.439 69.0521 27.9695 68.9516 27.4001 69.1318C26.7373 69.3414 26.7703 70.0171 26.3 70.5279C25.5695 71.3213 24.6863 71.8273 24.2 72.3229Z" fill="black" fill-opacity="0.1"/>
<path d="M12.4203 42.4391C12.4544 41.9206 12.2362 41.3348 12.7203 41.1427C13.294 40.9151 13.2676 41.9337 13.6203 42.4391C14.3568 43.4944 14.1263 44.2874 15.2 44.9992C15.5636 45.2402 17.0342 45.3961 17 45.8302C16.9 47.1001 16.5203 47.5001 16.5203 47.5001C16.5203 47.5001 15.5337 47.682 14.9 47.7001C14.3535 47.7157 13.5 47.6001 13.5 47.6001C13.5 47.6001 12.333 43.7672 12.4203 42.4391Z" fill="black" fill-opacity="0.1"/>
<path d="M58.0845 39.4152C59.1809 36.1893 58.7253 29.2 61.3845 31.3378C62.5948 32.3109 62.7519 33.4132 63.0845 34.9278C63.6078 37.3111 62.1 41.11 62.1 41.11C62.1 41.11 61.8202 39.7881 61.6001 39.0159C61.4211 38.3879 61.1001 37.5201 61.1001 37.5201C61.1001 37.5201 59.2393 42.2442 58.5001 45.3981C58.0397 47.3619 58.0906 48.4879 57.8001 50.4838C57.5008 52.5395 57.2001 55.7691 57.2001 55.7691C57.2001 55.7691 56.0001 57.963 55.4001 57.8632C54.8001 57.7635 54.6689 56.867 54.5845 55.5701C54.5001 54.2733 56.0067 45.5281 58.0845 39.4152Z" fill="black" fill-opacity="0.1"/>
<path d="M56.1 62.1513C56.8361 63.2126 57.5941 64.2751 56.6 65.5418C56.4298 65.7587 56.3317 65.8907 56.1 66.0404C55.0105 66.7443 54.4441 64.7711 53.8 63.6471C53.081 62.3924 52.1099 62.0295 52.4 60.6554C52.5562 59.9155 51.7477 59.1671 52.3 58.5613C53.0802 57.7055 53.8117 60.0597 54.4 60.6554C55.1234 61.388 55.5135 61.3057 56.1 62.1513Z" fill="black" fill-opacity="0.1"/>
<path d="M57.8 69.4309C57.7893 68.7829 57.1897 68.4281 56.9 68.0348C56.573 67.591 56.9935 67.5049 55.9 67.0376L53.1 65.841C52.0065 65.3736 52.0177 64.8695 51.2 64.9435C50.831 64.9769 50.5724 64.9923 50.3 65.2426C49.6702 65.8215 50.6281 66.6012 51.2 67.2371C51.9467 68.0673 52.8812 67.7981 53.8 68.4337C54.5944 68.9833 54.7896 69.603 55.6 70.129C56.1123 70.4615 56.6361 71.0105 57 70.827C57.3974 70.6267 57.8104 70.0588 57.8 69.4309Z" fill="black" fill-opacity="0.1"/>
<path d="M55.6 72.3229C57.0657 73.8167 60.4 72.7217 59.4 74.3173C59.1349 74.7402 59.1 74.9755 58.4 75.1151C57.9 75.2148 52.3 75.7134 52.3 75.7134C52.3 75.7134 51.9767 75.176 51.8 74.8159C51.2789 73.7537 51.0605 73.0956 50.9 71.924C50.7678 70.9593 50.1465 70.0501 50.9 69.4309C51.361 69.0521 51.8306 68.9516 52.4 69.1318C53.0628 69.3414 53.0298 70.0171 53.5 70.5279C54.2305 71.3213 55.1137 71.8273 55.6 72.3229Z" fill="black" fill-opacity="0.1"/>
<path d="M67.3804 42.4391C67.3463 41.9206 67.5645 41.3348 67.0804 41.1427C66.5067 40.9151 66.5331 41.9337 66.1804 42.4391C65.4438 43.4944 65.6743 44.2874 64.6006 44.9992C64.237 45.2402 62.7664 45.3961 62.8006 45.8302C62.9006 47.1001 63.2804 47.5001 63.2804 47.5001C63.2804 47.5001 64.2669 47.682 64.9006 47.7001C65.4471 47.7157 66.3006 47.6001 66.3006 47.6001C66.3006 47.6001 67.4676 43.7672 67.3804 42.4391Z" fill="black" fill-opacity="0.1"/>
</svg>
