<svg width="76" height="71" viewBox="0 0 76 71" fill="none" xmlns="http://www.w3.org/2000/svg">
<path d="M75.7791 65.4466C75.4967 67.651 70.305 66.934 70.305 66.934C70.305 66.934 65.9807 66.9781 64.8772 66.4382C63.6222 65.8242 65.4927 54.6798 63.8974 45.7946C63.4753 43.4436 62.1049 38.5093 61.8917 37.0436C61.7366 35.9855 59.1402 31.2265 58.83 30.9839C58.675 31.3915 56.2908 40.3829 56.1551 41.3633C55.971 42.6251 55.6743 45.8573 55.3932 47.0124C55.1994 47.818 54.9959 52.1289 55.054 52.6336C55.1606 53.5266 55.3254 59.7958 55.4902 60.252C55.5483 60.417 56.9574 68.135 57.2481 68.7659C57.4904 69.2998 57.0737 70.0554 56.5213 70.2301C55.5327 70.5407 50.1365 70.852 48.6634 70.949C47.6651 71.017 28.2041 71.017 27.2058 70.949C25.723 70.852 20.3268 70.5407 19.348 70.2301C18.7955 70.0554 18.3691 69.2998 18.6211 68.7659C18.6211 68.7659 20.3209 60.417 20.3791 60.252C20.5438 59.7958 20.6989 53.5266 20.8152 52.6336C20.883 52.1289 20.6698 47.818 20.476 47.0124C20.1949 45.8573 19.8983 42.6154 19.7141 41.3633C19.5688 40.3926 17.1943 30.3999 17.0392 29.9922C16.7291 30.2349 14.1326 35.9758 13.9775 37.0436C13.7643 38.5093 12.3939 43.4436 11.9718 45.7946C10.3765 54.6798 12.2471 65.8242 10.992 66.4382C9.88853 66.9781 5.56419 66.934 5.56419 66.934C5.56419 66.934 0.228309 67.6649 0.0901604 65.4466C-0.403888 57.5137 1.27999 47.8362 1.57299 43.0366C2.07591 34.7986 5.2545 24.2316 5.53556 22.2515C5.69063 21.1449 7.425 13.4674 7.51222 13.0403C7.78359 11.6619 8.43294 10.4676 9.39242 9.45807C9.68318 9.14746 12.5035 7.58426 13.5211 7.01157C15.8278 5.72059 18.2507 4.72143 20.7802 3.95461C22.1371 3.53722 23.4358 2.9454 24.7926 2.51831C25.9556 2.15917 26.8376 1.43101 27.6711 0.615653C28.0006 0.285629 28.3979 0.100296 28.8437 0.0129365C29.057 -0.0258899 29.2411 0.0226877 29.4253 0.15858C30.4332 0.915694 31.4702 1.62531 32.6042 2.18829C33.302 2.52802 36.5875 3.21709 37.9443 3.21709C39.3012 3.21709 40.4738 3.43176 42 3C43.9883 2.43753 45.4554 0.915694 46.4634 0.15858C46.6475 0.0226877 46.8316 -0.0258899 47.0449 0.0129365C47.4907 0.100296 47.888 0.285629 48.2176 0.615653C49.0511 1.44071 49.933 2.15917 51.096 2.51831C52.4529 2.9357 53.7515 3.53722 55.1084 3.95461C57.6379 4.72143 60.0609 5.72059 62.3675 7.01157C63.3851 7.58426 66.2054 9.14746 66.4962 9.45807C67.4557 10.4676 68.105 11.6619 68.3764 13.0403C68.4636 13.4674 70.1883 21.1352 70.3531 22.2515C70.6341 24.2316 73.6904 34.8066 74.3156 43.0366C74.6049 46.8442 76.6684 58.5053 75.7791 65.4466Z" fill="#E90601"/>
<path d="M1.65047 42H12.8206L12.35 44L11.9367 46H1.27979C1.27979 46 1.41935 44.7782 1.5 44C1.58304 43.1987 1.65047 42 1.65047 42Z" fill="#F0F0F0"/>
<path d="M74.2293 42H63.0591L63.5298 44L63.943 46H74.6C74.6 46 74.4604 44.7782 74.3798 44C74.2967 43.1987 74.2293 42 74.2293 42Z" fill="#F0F0F0"/>
<path d="M34.9307 2.9505L28.8911 0.746338L28.5941 1.02186L31.7624 4.14442L35.2277 6.1649L39.5842 6.25674L43.4455 4.60362L47.3069 1.02186L46.6139 0.746338L40.9703 2.9505H34.9307Z" fill="#BA2136"/>
<path d="M46.9266 0.000976563C47.4172 0.000977246 47.5594 0.154465 47.9077 0.369301C48.2146 0.558549 48.6 0.98 48.6 0.98C48.6 0.98 45.5 4.5 43.5907 5.97335C41.7415 7.40034 40.2529 8.02824 37.9002 7.99914C35.5209 7.9697 34.1398 7.32945 32.2096 5.97335C30 4.42096 27.2778 1.19803 27.1797 1.10595C27.0816 1.01387 27.7143 0.419033 28.2 0.2C28.5862 0.0258968 28.8737 0.000977593 29.2662 0.000976563C29.6586 0.000975532 31.5152 0.97617 32.9945 1.5C34.8774 2.16676 35.945 2.5 37.9002 2.5C39.8553 2.5 40.91 2.12888 42.8058 1.5C44.4312 0.960851 46.436 0.000975879 46.9266 0.000976563ZM29.2662 1.10595C29.2662 1.10595 31.5 3.5 32.8037 4.42096C34.4512 5.58493 35.8344 6.13274 37.9002 6.16533C39.9478 6.19763 41.3798 5.79373 42.9967 4.60512C44.5 3.5 46.9266 1.10595 46.9266 1.10595C46.9266 1.10595 44.4783 2.39084 42.8058 2.94757C40.9468 3.56643 39.8704 4 37.9002 4C35.93 4 34.8373 3.61337 32.9945 2.94757C31.4672 2.39575 29.2662 1.10595 29.2662 1.10595Z" fill="#9c0103"/>
<path d="M19.1923 66H56.5693C56.5693 66 56.2852 64.484 56.1 63.5C55.9175 62.5298 55.6259 61 55.6259 61H20.2211C20.2211 61 19.7578 62.8051 19.5 64C19.3331 64.7737 19.1923 66 19.1923 66Z" fill="#F0F0F0"/>
<path d="M20.1462 32.5194C19.0697 29.2773 19.517 22.2528 16.9062 24.4014C15.7178 25.3794 15.5637 26.4872 15.2371 28.0094C14.7233 30.4047 15 34 15 34C15 34 15.6527 32.8541 16 32C16.323 31.2057 16.9062 30 16.9062 30C16.9062 30 18.7742 36.3303 19.5 39.5C19.952 41.4737 19.861 42.9941 20.1462 45C20.44 47.066 21.0145 48.9554 21.0145 48.9554C21.0145 48.9554 22.1927 51.1603 22.7818 51.0601C23.3709 50.9599 23.4997 50.0588 23.5826 48.7555C23.6655 47.4521 22.1862 38.663 20.1462 32.5194Z" fill="black" fill-opacity="0.1"/>
<path d="M23.0945 55.3697C22.3718 56.4363 21.6276 57.5042 22.6036 58.7773C22.7707 58.9952 22.867 59.1279 23.0945 59.2784C24.1642 59.9858 24.7204 58.0027 25.3527 56.873C26.0586 55.612 27.0121 55.2473 26.7273 53.8663C26.5739 53.1227 27.3677 52.3705 26.8254 51.7616C26.0595 50.9015 25.3412 53.2675 24.7636 53.8663C24.0534 54.6026 23.6703 54.5198 23.0945 55.3697Z" fill="black" fill-opacity="0.1"/>
<path d="M21.4254 62.6859C21.436 62.0346 22.0246 61.678 22.3091 61.2828C22.6301 60.8368 22.2173 60.7503 23.2909 60.2806L26.04 59.0779C27.1136 58.6083 27.1026 58.1016 27.9054 58.1759C28.2677 58.2095 28.5216 58.225 28.7891 58.4766C29.4075 59.0583 28.4669 59.842 27.9054 60.481C27.1723 61.3154 26.2548 61.0449 25.3527 61.6837C24.5727 62.2361 24.3811 62.8589 23.5854 63.3875C23.0824 63.7217 22.5682 64.2734 22.2109 64.0891C21.8207 63.8877 21.4152 63.317 21.4254 62.6859Z" fill="black" fill-opacity="0.1"/>
<path d="M23.5854 65.5924C22.1464 67.0937 18.8727 65.9933 19.8545 67.5968C20.1148 68.0219 20.1491 68.2583 20.8363 68.3986C21.3273 68.4988 26.8254 69 26.8254 69C26.8254 69 27.1429 68.4599 27.3164 68.098C27.828 67.0304 28.0424 66.369 28.2 65.1915C28.3297 64.222 28.9398 63.3082 28.2 62.6859C27.7473 62.3052 27.2863 62.2042 26.7273 62.3853C26.0766 62.596 26.109 63.2751 25.6473 63.7884C24.93 64.5858 24.0629 65.0943 23.5854 65.5924Z" fill="black" fill-opacity="0.1"/>
<path d="M55.8538 32.5194C56.9303 29.2773 56.483 22.2528 59.0938 24.4014C60.2821 25.3794 60.4363 26.4872 60.7629 28.0094C61.2767 30.4047 60.7963 34.2227 60.7963 34.2227C60.7963 34.2227 59.7161 32.7761 59.5 32C59.3243 31.3689 58.8145 30.6147 58.8145 30.6147C58.8145 30.6147 57.7258 35.3303 57 38.5C56.548 40.4737 55.7852 43.9941 55.5 46C55.2062 48.066 54.9854 48.9554 54.9854 48.9554C54.9854 48.9554 53.8073 51.1603 53.2182 51.0601C52.6291 50.9599 52.5003 50.0588 52.4174 48.7555C52.3345 47.4521 53.8138 38.663 55.8538 32.5194Z" fill="black" fill-opacity="0.1"/>
<path d="M52.9055 55.3697C53.6282 56.4363 54.3724 57.5042 53.3964 58.7773C53.2293 58.9952 53.133 59.1279 52.9055 59.2784C51.8358 59.9858 51.2796 58.0027 50.6473 56.873C49.9414 55.612 48.9879 55.2473 49.2727 53.8663C49.4261 53.1227 48.6323 52.3705 49.1746 51.7616C49.9405 50.9015 50.6588 53.2675 51.2364 53.8663C51.9466 54.6026 52.3297 54.5198 52.9055 55.3697Z" fill="black" fill-opacity="0.1"/>
<path d="M54.5746 62.6859C54.564 62.0346 53.9754 61.678 53.6909 61.2828C53.3699 60.8368 53.7827 60.7503 52.7091 60.2806L49.96 59.0779C48.8864 58.6083 48.8974 58.1016 48.0946 58.1759C47.7323 58.2095 47.4784 58.225 47.2109 58.4766C46.5925 59.0583 47.5331 59.842 48.0946 60.481C48.8277 61.3154 49.7452 61.0449 50.6473 61.6837C51.4273 62.2361 51.6189 62.8589 52.4146 63.3875C52.9176 63.7217 53.4318 64.2734 53.7891 64.0891C54.1793 63.8877 54.5848 63.317 54.5746 62.6859Z" fill="black" fill-opacity="0.1"/>
<path d="M52.4146 65.5924C53.8536 67.0937 57.1273 65.9933 56.1455 67.5968C55.8852 68.0219 55.8509 68.2583 55.1637 68.3986C54.6727 68.4988 49.1746 69 49.1746 69C49.1746 69 48.8571 68.4599 48.6836 68.098C48.172 67.0304 47.9576 66.369 47.8 65.1915C47.6703 64.222 47.0602 63.3082 47.8 62.6859C48.2527 62.3052 48.7137 62.2042 49.2727 62.3853C49.9235 62.596 49.891 63.2751 50.3527 63.7884C51.07 64.5858 51.9371 65.0943 52.4146 65.5924Z" fill="black" fill-opacity="0.1"/>
<path d="M10.4971 60.3357C10.4636 59.8147 10.6778 59.2259 10.2025 59.0328C9.63924 58.804 9.66521 59.8278 9.31889 60.3357C8.59576 61.3963 8.82207 62.1933 7.76788 62.9087C7.41088 63.1509 5.96704 63.3076 6.0006 63.7439C6.09878 65.0201 6.47162 65.4221 6.47162 65.4221C6.47162 65.4221 7.44024 65.6049 8.06242 65.6231C8.599 65.6388 9.43697 65.5226 9.43697 65.5226C9.43697 65.5226 10.5827 61.6705 10.4971 60.3357Z" fill="black" fill-opacity="0.1"/>
<path d="M1.41992 46.2888C1.45336 46.8099 1.23917 47.3986 1.71447 47.5917C2.27775 47.8205 2.25179 46.7968 2.5981 46.2888C3.32123 45.2282 3.09492 44.4313 4.14912 43.7159C4.50611 43.4736 5.94995 43.317 5.91639 42.8807C5.81821 41.6045 5.44538 41.2025 5.44538 41.2025C5.44538 41.2025 4.47675 41.0196 3.85457 41.0014C3.318 40.9858 2.48002 41.1019 2.48002 41.1019C2.48002 41.1019 1.33425 44.9541 1.41992 46.2888Z" fill="black" fill-opacity="0.1"/>
<path d="M65.0199 60.3357C65.0533 59.8147 64.8391 59.2259 65.3144 59.0328C65.8777 58.804 65.8518 59.8278 66.1981 60.3357C66.9212 61.3963 66.6949 62.1933 67.7491 62.9087C68.1061 63.1509 69.5499 63.3076 69.5164 63.7439C69.4182 65.0201 69.0454 65.4221 69.0454 65.4221C69.0454 65.4221 68.0767 65.6049 67.4545 65.6231C66.918 65.6388 66.08 65.5226 66.08 65.5226C66.08 65.5226 64.9342 61.6705 65.0199 60.3357Z" fill="black" fill-opacity="0.1"/>
<path d="M74.4971 46.2888C74.4636 46.8099 74.6778 47.3986 74.2025 47.5917C73.6392 47.8205 73.6652 46.7968 73.3189 46.2888C72.5958 45.2282 72.8221 44.4313 71.7679 43.7159C71.4109 43.4736 69.967 43.317 70.0006 42.8807C70.0988 41.6045 70.4716 41.2025 70.4716 41.2025C70.4716 41.2025 71.4402 41.0196 72.0624 41.0014C72.599 40.9858 73.437 41.1019 73.437 41.1019C73.437 41.1019 74.5827 44.9541 74.4971 46.2888Z" fill="black" fill-opacity="0.1"/>
</svg>
